<svg xmlns="http://www.w3.org/2000/svg" xmlns:xlink="http://www.w3.org/1999/xlink" width="1366" zoomAndPan="magnify" viewBox="0 0 1024.5 576" height="768" preserveAspectRatio="xMidYMid meet" version="1.0"><defs><clipPath id="d1a4fa6acc"><path d="M 0 0.140625 L 1024 0.140625 L 1024 575.859375 L 0 575.859375 Z M 0 0.140625 " clip-rule="nonzero"/></clipPath><clipPath id="f20a89841f"><path d="M 0 0.140625 L 338 0.140625 L 338 323 L 0 323 Z M 0 0.140625 " clip-rule="nonzero"/></clipPath><clipPath id="d1913e1988"><path d="M -183.066406 -109.550781 L 282.15625 -178.625 L 347.890625 264.113281 L -117.332031 333.1875 Z M -183.066406 -109.550781 " clip-rule="nonzero"/></clipPath><clipPath id="9eea1cc1bb"><path d="M -108.914062 -120.5625 L 207.695312 -167.570312 C 248.644531 -173.648438 286.773438 -145.378906 292.855469 -104.425781 L 336.570312 190.007812 C 342.648438 230.960938 314.378906 269.089844 273.429688 275.167969 L -43.179688 322.175781 C -84.132812 328.257812 -122.261719 299.988281 -128.339844 259.035156 L -172.054688 -35.402344 C -178.136719 -76.355469 -149.867188 -114.480469 -108.914062 -120.5625 Z M -108.914062 -120.5625 " clip-rule="nonzero"/></clipPath><clipPath id="db291e1898"><path d="M 768 374 L 1024 374 L 1024 575.859375 L 768 575.859375 Z M 768 374 " clip-rule="nonzero"/></clipPath><clipPath id="a4a13f978d"><path d="M 758.679688 433.71875 L 1223.898438 364.648438 L 1289.632812 807.386719 L 824.414062 876.457031 Z M 758.679688 433.71875 " clip-rule="nonzero"/></clipPath><clipPath id="05e7aee147"><path d="M 832.828125 422.710938 L 1149.4375 375.703125 C 1190.390625 369.621094 1228.515625 397.890625 1234.597656 438.84375 L 1278.3125 733.28125 C 1284.394531 774.234375 1256.125 812.359375 1215.171875 818.441406 L 898.5625 865.449219 C 857.609375 871.527344 819.484375 843.257812 813.402344 802.308594 L 769.6875 507.871094 C 763.605469 466.917969 791.875 428.789062 832.828125 422.710938 Z M 832.828125 422.710938 " clip-rule="nonzero"/></clipPath></defs><g clip-path="url(#d1a4fa6acc)"><path fill="#ffffff" d="M 0 0.140625 L 1024 0.140625 L 1024 575.859375 L 0 575.859375 Z M 0 0.140625 " fill-opacity="1" fill-rule="nonzero"/><path fill="#ffffff" d="M 0 0.140625 L 1024 0.140625 L 1024 575.859375 L 0 575.859375 Z M 0 0.140625 " fill-opacity="1" fill-rule="nonzero"/></g><g clip-path="url(#f20a89841f)"><g clip-path="url(#d1913e1988)"><g clip-path="url(#9eea1cc1bb)"><path fill="#000000" d="M -183.066406 -109.550781 L 282.15625 -178.625 L 347.890625 264.113281 L -117.332031 333.1875 Z M -183.066406 -109.550781 " fill-opacity="1" fill-rule="nonzero"/></g></g></g><g clip-path="url(#db291e1898)"><g clip-path="url(#a4a13f978d)"><g clip-path="url(#05e7aee147)"><path fill="#000000" d="M 758.679688 433.71875 L 1223.898438 364.648438 L 1289.632812 807.386719 L 824.414062 876.457031 Z M 758.679688 433.71875 " fill-opacity="1" fill-rule="nonzero"/></g></g></g></svg>