<svg xmlns="http://www.w3.org/2000/svg" xmlns:xlink="http://www.w3.org/1999/xlink" width="1366" zoomAndPan="magnify" viewBox="0 0 1024.5 576" height="768" preserveAspectRatio="xMidYMid meet" version="1.0"><defs><clipPath id="2e4908a07a"><path d="M 0 0.140625 L 1024 0.140625 L 1024 575.859375 L 0 575.859375 Z M 0 0.140625 " clip-rule="nonzero"/></clipPath><clipPath id="1d973046bb"><path d="M 673 0.140625 L 1024 0.140625 L 1024 296 L 673 296 Z M 673 0.140625 " clip-rule="nonzero"/></clipPath><clipPath id="a6b20a9c45"><path d="M 663.121094 -136.570312 L 1128.339844 -205.644531 L 1194.074219 237.09375 L 728.855469 306.167969 Z M 663.121094 -136.570312 " clip-rule="nonzero"/></clipPath><clipPath id="d2b51ab75b"><path d="M 737.269531 -147.582031 L 1053.878906 -194.585938 C 1094.832031 -200.667969 1132.960938 -172.398438 1139.039062 -131.445312 L 1182.753906 162.992188 C 1188.835938 203.941406 1160.566406 242.070312 1119.613281 248.152344 L 803.003906 295.15625 C 762.054688 301.238281 723.925781 272.96875 717.84375 232.015625 L 674.128906 -62.421875 C 668.050781 -103.371094 696.320312 -141.5 737.269531 -147.582031 Z M 737.269531 -147.582031 " clip-rule="nonzero"/></clipPath><clipPath id="da254bc95e"><path d="M 0 434 L 346 434 L 346 575.859375 L 0 575.859375 Z M 0 434 " clip-rule="nonzero"/></clipPath><clipPath id="8d07480b42"><path d="M -174.875 493.4375 L 290.34375 424.367188 L 356.078125 867.105469 L -109.140625 936.175781 Z M -174.875 493.4375 " clip-rule="nonzero"/></clipPath><clipPath id="9ae0b45709"><path d="M -100.726562 482.429688 L 215.882812 435.421875 C 256.835938 429.339844 294.960938 457.609375 301.042969 498.5625 L 344.757812 793 C 350.839844 833.953125 322.570312 872.078125 281.617188 878.160156 L -34.992188 925.167969 C -75.945312 931.246094 -114.070312 902.976562 -120.152344 862.027344 L -163.867188 567.589844 C -169.949219 526.636719 -141.679688 488.507812 -100.726562 482.429688 Z M -100.726562 482.429688 " clip-rule="nonzero"/></clipPath></defs><g clip-path="url(#2e4908a07a)"><path fill="#ffffff" d="M 0 0.140625 L 1024 0.140625 L 1024 575.859375 L 0 575.859375 Z M 0 0.140625 " fill-opacity="1" fill-rule="nonzero"/><path fill="#ffffff" d="M 0 0.140625 L 1024 0.140625 L 1024 575.859375 L 0 575.859375 Z M 0 0.140625 " fill-opacity="1" fill-rule="nonzero"/></g><g clip-path="url(#1d973046bb)"><g clip-path="url(#a6b20a9c45)"><g clip-path="url(#d2b51ab75b)"><path fill="#000000" d="M 663.121094 -136.570312 L 1128.339844 -205.644531 L 1194.074219 237.09375 L 728.855469 306.167969 Z M 663.121094 -136.570312 " fill-opacity="1" fill-rule="nonzero"/></g></g></g><g clip-path="url(#da254bc95e)"><g clip-path="url(#8d07480b42)"><g clip-path="url(#9ae0b45709)"><path fill="#000000" d="M -174.875 493.4375 L 290.34375 424.367188 L 356.078125 867.105469 L -109.140625 936.175781 Z M -174.875 493.4375 " fill-opacity="1" fill-rule="nonzero"/></g></g></g></svg>