<svg xmlns="http://www.w3.org/2000/svg" xmlns:xlink="http://www.w3.org/1999/xlink" width="117" zoomAndPan="magnify" viewBox="0 0 87.75 87.749997" height="117" preserveAspectRatio="xMidYMid meet" version="1.0"><defs><clipPath id="4fe48edb82"><path d="M 0 19.382812 L 87 19.382812 L 87 67.859375 L 0 67.859375 Z M 0 19.382812 " clip-rule="nonzero"/></clipPath><clipPath id="5df0681ec4"><path d="M 0.820312 0 L 86.664062 0 L 86.664062 48 L 0.820312 48 Z M 0.820312 0 " clip-rule="nonzero"/></clipPath><clipPath id="9ba65b0d77"><path d="M 6 39 L 82 39 L 82 87.191406 L 6 87.191406 Z M 6 39 " clip-rule="nonzero"/></clipPath></defs><path fill="#100f0d" d="M 43.59375 35.632812 C 39.1875 35.632812 35.605469 39.214844 35.605469 43.617188 C 35.605469 48.023438 39.1875 51.609375 43.59375 51.609375 C 48 51.609375 51.585938 48.023438 51.585938 43.617188 C 51.585938 39.214844 48 35.632812 43.59375 35.632812 " fill-opacity="1" fill-rule="nonzero"/><g clip-path="url(#4fe48edb82)"><path fill="#100f0d" d="M 81.714844 44.125 C 81.152344 44.757812 70.421875 56.6875 55.792969 61.617188 C 61.441406 57.722656 65.148438 51.207031 65.148438 43.84375 C 65.148438 35.878906 60.808594 28.90625 54.371094 25.167969 C 69.71875 29.773438 81.132812 42.460938 81.714844 43.117188 L 82.160156 43.621094 Z M 5.472656 44.125 L 5.027344 43.621094 L 5.46875 43.121094 C 6.050781 42.472656 17.433594 29.921875 32.601562 25.25 C 26.238281 29.007812 21.960938 35.9375 21.960938 43.84375 C 21.960938 51.164062 25.625 57.644531 31.21875 61.550781 C 16.703125 56.578125 6.035156 44.753906 5.472656 44.125 Z M 43.554688 61.300781 C 33.925781 61.300781 26.09375 53.46875 26.09375 43.84375 C 26.09375 34.222656 33.925781 26.390625 43.554688 26.390625 C 53.183594 26.390625 61.015625 34.222656 61.015625 43.84375 C 61.015625 53.46875 53.183594 61.300781 43.554688 61.300781 Z M 86.472656 42.246094 L 84.804688 40.375 C 84.046875 39.515625 65.929688 19.382812 43.59375 19.382812 C 34.25 19.382812 24.574219 22.816406 14.832031 29.589844 C 7.625 34.601562 2.902344 39.792969 2.382812 40.375 L 0.71875 42.25 C 0.0234375 43.03125 0.0234375 44.207031 0.71875 44.988281 L 2.382812 46.867188 C 2.890625 47.4375 7.5625 52.597656 14.824219 57.648438 C 24.5625 64.421875 34.242188 67.855469 43.59375 67.855469 C 65.929688 67.855469 84.046875 47.722656 84.804688 46.867188 L 86.472656 44.992188 C 87.164062 44.207031 87.164062 43.03125 86.472656 42.246094 " fill-opacity="1" fill-rule="nonzero"/></g><g clip-path="url(#5df0681ec4)"><path fill="#000000" d="M 10.0625 35.222656 C 8.898438 31.359375 8.003906 27.332031 7.402344 23.234375 C 10.242188 22.816406 13.527344 21.917969 17.179688 20.558594 C 21.15625 19.074219 25.640625 17.03125 30.503906 14.484375 C 36.300781 11.445312 41.324219 8.367188 43.726562 6.851562 C 43.730469 6.855469 43.738281 6.855469 43.742188 6.859375 C 43.746094 6.855469 43.75 6.855469 43.753906 6.851562 C 46.160156 8.367188 51.179688 11.445312 56.976562 14.484375 C 61.839844 17.03125 66.324219 19.074219 70.300781 20.558594 C 73.957031 21.917969 77.238281 22.816406 80.078125 23.234375 C 79.476562 27.332031 78.582031 31.359375 77.417969 35.222656 C 76.164062 39.382812 74.566406 43.457031 72.664062 47.34375 C 83.570312 35.566406 86.664062 17.9375 86.664062 17.9375 L 83.417969 17.898438 C 78.273438 17.839844 70.121094 14.964844 59.851562 9.585938 C 51.898438 5.417969 45.5 1.207031 45.4375 1.164062 L 43.753906 0.0546875 L 43.742188 0.0625 L 43.726562 0.0546875 L 42.046875 1.164062 C 41.980469 1.207031 35.582031 5.417969 27.628906 9.585938 C 17.359375 14.964844 9.210938 17.839844 4.0625 17.898438 L 0.820312 17.9375 C 0.820312 17.9375 3.910156 35.566406 14.816406 47.34375 C 12.914062 43.457031 11.316406 39.382812 10.0625 35.222656 " fill-opacity="1" fill-rule="nonzero"/></g><g clip-path="url(#9ba65b0d77)"><path fill="#000000" d="M 43.753906 80.207031 C 43.75 80.203125 43.746094 80.199219 43.742188 80.199219 C 43.738281 80.199219 43.730469 80.203125 43.726562 80.207031 C 25.128906 68.328125 9.253906 44.484375 6.214844 39.917969 C 7.253906 42.871094 8.433594 45.765625 9.742188 48.570312 C 13.355469 56.296875 18.007812 63.496094 23.570312 69.96875 C 28.527344 75.734375 33.308594 79.851562 36.449219 82.289062 C 39.902344 84.972656 42.1875 86.277344 42.285156 86.332031 L 43.726562 87.15625 L 43.742188 87.148438 L 43.753906 87.15625 L 45.195312 86.332031 C 45.292969 86.277344 47.578125 84.972656 51.03125 82.289062 C 54.171875 79.851562 58.953125 75.734375 63.910156 69.96875 C 69.476562 63.496094 74.128906 56.296875 77.738281 48.570312 C 79.050781 45.765625 80.230469 42.871094 81.269531 39.917969 C 78.226562 44.484375 62.355469 68.328125 43.753906 80.207031 " fill-opacity="1" fill-rule="nonzero"/></g></svg>