<svg xmlns="http://www.w3.org/2000/svg" xmlns:xlink="http://www.w3.org/1999/xlink" width="1301" zoomAndPan="magnify" viewBox="0 0 975.75 143.249994" height="191" preserveAspectRatio="xMidYMid meet" version="1.0"><defs><g/><clipPath id="713b954b72"><path d="M 2.417969 43.648438 L 89.398438 43.648438 L 89.398438 92.011719 L 2.417969 92.011719 Z M 2.417969 43.648438 " clip-rule="nonzero"/></clipPath><clipPath id="711a031330"><path d="M 3.234375 24.3125 L 88.875 24.3125 L 88.875 72 L 3.234375 72 Z M 3.234375 24.3125 " clip-rule="nonzero"/></clipPath><clipPath id="ae572f0db8"><path d="M 8 64 L 84 64 L 84 111.296875 L 8 111.296875 Z M 8 64 " clip-rule="nonzero"/></clipPath></defs><g fill="#000000" fill-opacity="1"><g transform="translate(115.74195, 91.303107)"><g><path d="M 36.703125 -14.34375 L 14.265625 -14.34375 L 9.015625 0 L 1.953125 0 L 22.03125 -54.890625 L 28.9375 -54.890625 L 49.015625 0 L 41.953125 0 Z M 16.390625 -20.234375 L 34.5 -20.234375 L 25.484375 -44.9375 Z M 16.390625 -20.234375 "/></g></g></g><g fill="#000000" fill-opacity="1"><g transform="translate(189.386952, 91.303107)"><g><path d="M 40.15625 -39.609375 C 40.15625 -30.710938 36.050781 -25.5625 27.84375 -24.15625 L 41.953125 0 L 34.34375 0 L 20.46875 -23.765625 L 12.546875 -23.765625 L 12.546875 0 L 5.875 0 L 5.875 -54.890625 L 22.984375 -54.890625 C 28.628906 -54.890625 32.898438 -53.566406 35.796875 -50.921875 C 38.703125 -48.285156 40.15625 -44.515625 40.15625 -39.609375 Z M 12.546875 -49.015625 L 12.546875 -29.640625 L 22.984375 -29.640625 C 26.535156 -29.640625 29.171875 -30.382812 30.890625 -31.875 C 32.617188 -33.363281 33.484375 -35.890625 33.484375 -39.453125 C 33.484375 -45.828125 29.984375 -49.015625 22.984375 -49.015625 Z M 12.546875 -49.015625 "/></g></g></g><g fill="#000000" fill-opacity="1"><g transform="translate(256.992959, 91.303107)"><g><path d="M 49.328125 -28.859375 L 49.328125 -22.65625 C 49.328125 -18.738281 48.816406 -15.300781 47.796875 -12.34375 C 46.773438 -9.394531 45.320312 -6.953125 43.4375 -5.015625 C 41.5625 -3.085938 39.300781 -1.640625 36.65625 -0.671875 C 34.019531 0.296875 31.082031 0.78125 27.84375 0.78125 C 24.707031 0.78125 21.738281 0.328125 18.9375 -0.578125 C 16.144531 -1.492188 13.6875 -3.035156 11.5625 -5.203125 C 9.445312 -7.378906 7.773438 -10.269531 6.546875 -13.875 C 5.316406 -17.488281 4.703125 -21.988281 4.703125 -27.375 C 4.703125 -32.757812 5.316406 -37.253906 6.546875 -40.859375 C 7.773438 -44.460938 9.445312 -47.363281 11.5625 -49.5625 C 13.6875 -51.757812 16.144531 -53.328125 18.9375 -54.265625 C 21.738281 -55.203125 24.707031 -55.671875 27.84375 -55.671875 C 30.25 -55.671875 32.519531 -55.421875 34.65625 -54.921875 C 36.800781 -54.429688 38.757812 -53.597656 40.53125 -52.421875 C 42.3125 -51.242188 43.894531 -49.6875 45.28125 -47.75 C 46.664062 -45.820312 47.78125 -43.445312 48.625 -40.625 L 42.421875 -38.65625 C 41.796875 -40.800781 41.007812 -42.59375 40.0625 -44.03125 C 39.125 -45.46875 38.023438 -46.617188 36.765625 -47.484375 C 35.515625 -48.347656 34.128906 -48.945312 32.609375 -49.28125 C 31.097656 -49.625 29.507812 -49.796875 27.84375 -49.796875 C 25.59375 -49.796875 23.472656 -49.457031 21.484375 -48.78125 C 19.492188 -48.101562 17.753906 -46.898438 16.265625 -45.171875 C 14.773438 -43.441406 13.585938 -41.140625 12.703125 -38.265625 C 11.816406 -35.390625 11.375 -31.757812 11.375 -27.375 C 11.375 -22.976562 11.816406 -19.34375 12.703125 -16.46875 C 13.585938 -13.59375 14.773438 -11.304688 16.265625 -9.609375 C 17.753906 -7.910156 19.492188 -6.734375 21.484375 -6.078125 C 23.472656 -5.421875 25.59375 -5.09375 27.84375 -5.09375 C 30.039062 -5.09375 32.039062 -5.40625 33.84375 -6.03125 C 35.644531 -6.664062 37.195312 -7.675781 38.5 -9.0625 C 39.8125 -10.445312 40.832031 -12.25 41.5625 -14.46875 C 42.289062 -16.6875 42.65625 -19.414062 42.65625 -22.65625 L 42.65625 -22.984375 L 26.5 -22.984375 L 26.5 -28.859375 Z M 49.328125 -28.859375 "/></g></g></g><g fill="#000000" fill-opacity="1"><g transform="translate(333.696687, 91.303107)"><g><path d="M 27.453125 0.78125 C 24.046875 0.78125 20.941406 0.328125 18.140625 -0.578125 C 15.347656 -1.492188 12.957031 -3.050781 10.96875 -5.25 C 8.988281 -7.445312 7.445312 -10.347656 6.34375 -13.953125 C 5.25 -17.566406 4.703125 -22.066406 4.703125 -27.453125 C 4.703125 -32.835938 5.25 -37.332031 6.34375 -40.9375 C 7.445312 -44.539062 8.988281 -47.441406 10.96875 -49.640625 C 12.957031 -51.835938 15.347656 -53.390625 18.140625 -54.296875 C 20.941406 -55.210938 24.046875 -55.671875 27.453125 -55.671875 C 30.898438 -55.671875 34.019531 -55.210938 36.8125 -54.296875 C 39.613281 -53.390625 42.003906 -51.835938 43.984375 -49.640625 C 45.972656 -47.441406 47.515625 -44.539062 48.609375 -40.9375 C 49.710938 -37.332031 50.265625 -32.835938 50.265625 -27.453125 C 50.265625 -22.066406 49.710938 -17.566406 48.609375 -13.953125 C 47.515625 -10.347656 45.972656 -7.445312 43.984375 -5.25 C 42.003906 -3.050781 39.613281 -1.492188 36.8125 -0.578125 C 34.019531 0.328125 30.898438 0.78125 27.453125 0.78125 Z M 27.453125 -5.09375 C 29.910156 -5.09375 32.128906 -5.429688 34.109375 -6.109375 C 36.097656 -6.796875 37.796875 -7.972656 39.203125 -9.640625 C 40.617188 -11.316406 41.707031 -13.601562 42.46875 -16.5 C 43.226562 -19.40625 43.609375 -23.054688 43.609375 -27.453125 C 43.609375 -31.835938 43.226562 -35.46875 42.46875 -38.34375 C 41.707031 -41.21875 40.617188 -43.503906 39.203125 -45.203125 C 37.796875 -46.910156 36.097656 -48.101562 34.109375 -48.78125 C 32.128906 -49.457031 29.910156 -49.796875 27.453125 -49.796875 C 25.046875 -49.796875 22.847656 -49.457031 20.859375 -48.78125 C 18.867188 -48.101562 17.164062 -46.910156 15.75 -45.203125 C 14.34375 -43.503906 13.257812 -41.21875 12.5 -38.34375 C 11.75 -35.46875 11.375 -31.835938 11.375 -27.453125 C 11.375 -23.054688 11.75 -19.40625 12.5 -16.5 C 13.257812 -13.601562 14.34375 -11.316406 15.75 -9.640625 C 17.164062 -7.972656 18.867188 -6.796875 20.859375 -6.109375 C 22.847656 -5.429688 25.046875 -5.09375 27.453125 -5.09375 Z M 27.453125 -5.09375 "/></g></g></g><g fill="#000000" fill-opacity="1"><g transform="translate(411.34155, 91.303107)"><g><path d="M 42.1875 -14.984375 C 42.1875 -12.003906 41.675781 -9.503906 40.65625 -7.484375 C 39.632812 -5.472656 38.257812 -3.851562 36.53125 -2.625 C 34.8125 -1.394531 32.789062 -0.519531 30.46875 0 C 28.144531 0.519531 25.675781 0.78125 23.0625 0.78125 C 19.445312 0.78125 16.046875 0.285156 12.859375 -0.703125 C 9.671875 -1.703125 6.820312 -2.957031 4.3125 -4.46875 L 6.984375 -10.109375 C 8.234375 -9.273438 9.472656 -8.546875 10.703125 -7.921875 C 11.929688 -7.296875 13.171875 -6.769531 14.421875 -6.34375 C 15.679688 -5.925781 17.015625 -5.613281 18.421875 -5.40625 C 19.835938 -5.195312 21.359375 -5.09375 22.984375 -5.09375 C 24.804688 -5.09375 26.472656 -5.257812 27.984375 -5.59375 C 29.503906 -5.9375 30.828125 -6.488281 31.953125 -7.25 C 33.078125 -8.007812 33.953125 -9.003906 34.578125 -10.234375 C 35.210938 -11.460938 35.53125 -12.992188 35.53125 -14.828125 C 35.53125 -17.441406 34.796875 -19.398438 33.328125 -20.703125 C 31.867188 -22.003906 30.039062 -23.007812 27.84375 -23.71875 C 25.644531 -24.425781 23.265625 -25.050781 20.703125 -25.59375 C 18.140625 -26.144531 15.757812 -26.984375 13.5625 -28.109375 C 11.363281 -29.234375 9.53125 -30.828125 8.0625 -32.890625 C 6.601562 -34.960938 5.875 -37.90625 5.875 -41.71875 C 5.875 -44.125 6.332031 -46.203125 7.25 -47.953125 C 8.164062 -49.703125 9.40625 -51.148438 10.96875 -52.296875 C 12.539062 -53.453125 14.398438 -54.300781 16.546875 -54.84375 C 18.691406 -55.394531 20.96875 -55.671875 23.375 -55.671875 C 26.976562 -55.671875 30.242188 -55.253906 33.171875 -54.421875 C 36.097656 -53.585938 38.710938 -52.566406 41.015625 -51.359375 L 38.734375 -45.796875 C 36.859375 -46.835938 34.640625 -47.765625 32.078125 -48.578125 C 29.515625 -49.390625 26.613281 -49.796875 23.375 -49.796875 C 21.851562 -49.796875 20.4375 -49.625 19.125 -49.28125 C 17.820312 -48.945312 16.671875 -48.453125 15.671875 -47.796875 C 14.679688 -47.140625 13.910156 -46.300781 13.359375 -45.28125 C 12.816406 -44.269531 12.546875 -43.082031 12.546875 -41.71875 C 12.546875 -39.625 12.960938 -37.945312 13.796875 -36.6875 C 14.640625 -35.4375 15.765625 -34.429688 17.171875 -33.671875 C 18.585938 -32.921875 20.179688 -32.320312 21.953125 -31.875 C 23.734375 -31.4375 25.535156 -30.976562 27.359375 -30.5 C 29.191406 -30.03125 31 -29.484375 32.78125 -28.859375 C 34.5625 -28.234375 36.15625 -27.359375 37.5625 -26.234375 C 38.976562 -25.109375 40.101562 -23.644531 40.9375 -21.84375 C 41.769531 -20.039062 42.1875 -17.753906 42.1875 -14.984375 Z M 42.1875 -14.984375 "/></g></g></g><g fill="#000000" fill-opacity="1"><g transform="translate(481.065123, 91.303107)"><g><path d="M 5.875 0 L 5.875 -54.890625 L 20.3125 -54.890625 C 25.957031 -54.890625 30.53125 -54.257812 34.03125 -53 C 37.539062 -51.75 40.25 -49.921875 42.15625 -47.515625 C 44.0625 -45.117188 45.351562 -42.179688 46.03125 -38.703125 C 46.707031 -35.222656 47.046875 -31.289062 47.046875 -26.90625 C 47.046875 -22.976562 46.679688 -19.367188 45.953125 -16.078125 C 45.222656 -12.785156 43.898438 -9.945312 41.984375 -7.5625 C 40.078125 -5.1875 37.460938 -3.332031 34.140625 -2 C 30.828125 -0.664062 26.554688 0 21.328125 0 Z M 12.546875 -49.015625 L 12.546875 -5.875 L 21.40625 -5.875 C 25.332031 -5.875 28.519531 -6.367188 30.96875 -7.359375 C 33.425781 -8.359375 35.347656 -9.757812 36.734375 -11.5625 C 38.117188 -13.363281 39.070312 -15.570312 39.59375 -18.1875 C 40.125 -20.800781 40.390625 -23.707031 40.390625 -26.90625 C 40.390625 -30.5625 40.148438 -33.757812 39.671875 -36.5 C 39.203125 -39.25 38.25 -41.550781 36.8125 -43.40625 C 35.375 -45.257812 33.347656 -46.65625 30.734375 -47.59375 C 28.117188 -48.539062 24.644531 -49.015625 20.3125 -49.015625 Z M 12.546875 -49.015625 "/></g></g></g><g fill="#000000" fill-opacity="1"><g transform="translate(555.494396, 91.303107)"><g><path d="M 12.546875 -24.546875 L 12.546875 -5.875 L 39.203125 -5.875 L 39.203125 0 L 5.875 0 L 5.875 -54.890625 L 38.421875 -54.890625 L 38.421875 -49.015625 L 12.546875 -49.015625 L 12.546875 -30.421875 L 37.25 -30.421875 L 37.25 -24.546875 Z M 12.546875 -24.546875 "/></g></g></g><g fill="#000000" fill-opacity="1"><g transform="translate(621.453406, 91.303107)"><g><path d="M 5.875 0 L 5.875 -54.890625 L 35.296875 -54.890625 L 35.296875 -49.015625 L 12.546875 -49.015625 L 12.546875 -29.640625 L 34.109375 -29.640625 L 34.109375 -23.765625 L 12.546875 -23.765625 L 12.546875 0 Z M 5.875 0 "/></g></g></g><g fill="#000000" fill-opacity="1"><g transform="translate(683.490962, 91.303107)"><g><path d="M 12.546875 -24.546875 L 12.546875 -5.875 L 39.203125 -5.875 L 39.203125 0 L 5.875 0 L 5.875 -54.890625 L 38.421875 -54.890625 L 38.421875 -49.015625 L 12.546875 -49.015625 L 12.546875 -30.421875 L 37.25 -30.421875 L 37.25 -24.546875 Z M 12.546875 -24.546875 "/></g></g></g><g fill="#000000" fill-opacity="1"><g transform="translate(749.449971, 91.303107)"><g><path d="M 12.15625 -54.890625 L 39.203125 -12.9375 L 39.203125 -54.890625 L 45.875 -54.890625 L 45.875 0 L 39.609375 0 L 12.546875 -41.875 L 12.546875 0 L 5.875 0 L 5.875 -54.890625 Z M 12.15625 -54.890625 "/></g></g></g><g fill="#000000" fill-opacity="1"><g transform="translate(823.879244, 91.303107)"><g><path d="M 42.1875 -14.984375 C 42.1875 -12.003906 41.675781 -9.503906 40.65625 -7.484375 C 39.632812 -5.472656 38.257812 -3.851562 36.53125 -2.625 C 34.8125 -1.394531 32.789062 -0.519531 30.46875 0 C 28.144531 0.519531 25.675781 0.78125 23.0625 0.78125 C 19.445312 0.78125 16.046875 0.285156 12.859375 -0.703125 C 9.671875 -1.703125 6.820312 -2.957031 4.3125 -4.46875 L 6.984375 -10.109375 C 8.234375 -9.273438 9.472656 -8.546875 10.703125 -7.921875 C 11.929688 -7.296875 13.171875 -6.769531 14.421875 -6.34375 C 15.679688 -5.925781 17.015625 -5.613281 18.421875 -5.40625 C 19.835938 -5.195312 21.359375 -5.09375 22.984375 -5.09375 C 24.804688 -5.09375 26.472656 -5.257812 27.984375 -5.59375 C 29.503906 -5.9375 30.828125 -6.488281 31.953125 -7.25 C 33.078125 -8.007812 33.953125 -9.003906 34.578125 -10.234375 C 35.210938 -11.460938 35.53125 -12.992188 35.53125 -14.828125 C 35.53125 -17.441406 34.796875 -19.398438 33.328125 -20.703125 C 31.867188 -22.003906 30.039062 -23.007812 27.84375 -23.71875 C 25.644531 -24.425781 23.265625 -25.050781 20.703125 -25.59375 C 18.140625 -26.144531 15.757812 -26.984375 13.5625 -28.109375 C 11.363281 -29.234375 9.53125 -30.828125 8.0625 -32.890625 C 6.601562 -34.960938 5.875 -37.90625 5.875 -41.71875 C 5.875 -44.125 6.332031 -46.203125 7.25 -47.953125 C 8.164062 -49.703125 9.40625 -51.148438 10.96875 -52.296875 C 12.539062 -53.453125 14.398438 -54.300781 16.546875 -54.84375 C 18.691406 -55.394531 20.96875 -55.671875 23.375 -55.671875 C 26.976562 -55.671875 30.242188 -55.253906 33.171875 -54.421875 C 36.097656 -53.585938 38.710938 -52.566406 41.015625 -51.359375 L 38.734375 -45.796875 C 36.859375 -46.835938 34.640625 -47.765625 32.078125 -48.578125 C 29.515625 -49.390625 26.613281 -49.796875 23.375 -49.796875 C 21.851562 -49.796875 20.4375 -49.625 19.125 -49.28125 C 17.820312 -48.945312 16.671875 -48.453125 15.671875 -47.796875 C 14.679688 -47.140625 13.910156 -46.300781 13.359375 -45.28125 C 12.816406 -44.269531 12.546875 -43.082031 12.546875 -41.71875 C 12.546875 -39.625 12.960938 -37.945312 13.796875 -36.6875 C 14.640625 -35.4375 15.765625 -34.429688 17.171875 -33.671875 C 18.585938 -32.921875 20.179688 -32.320312 21.953125 -31.875 C 23.734375 -31.4375 25.535156 -30.976562 27.359375 -30.5 C 29.191406 -30.03125 31 -29.484375 32.78125 -28.859375 C 34.5625 -28.234375 36.15625 -27.359375 37.5625 -26.234375 C 38.976562 -25.109375 40.101562 -23.644531 40.9375 -21.84375 C 41.769531 -20.039062 42.1875 -17.753906 42.1875 -14.984375 Z M 42.1875 -14.984375 "/></g></g></g><g fill="#000000" fill-opacity="1"><g transform="translate(893.602793, 91.303107)"><g><path d="M 12.546875 -24.546875 L 12.546875 -5.875 L 39.203125 -5.875 L 39.203125 0 L 5.875 0 L 5.875 -54.890625 L 38.421875 -54.890625 L 38.421875 -49.015625 L 12.546875 -49.015625 L 12.546875 -30.421875 L 37.25 -30.421875 L 37.25 -24.546875 Z M 12.546875 -24.546875 "/></g></g></g><path fill="#100f0d" d="M 45.90625 59.863281 C 41.511719 59.863281 37.9375 63.4375 37.9375 67.828125 C 37.9375 72.222656 41.511719 75.800781 45.90625 75.800781 C 50.300781 75.800781 53.878906 72.222656 53.878906 67.828125 C 53.878906 63.4375 50.300781 59.863281 45.90625 59.863281 " fill-opacity="1" fill-rule="nonzero"/><g clip-path="url(#713b954b72)"><path fill="#100f0d" d="M 83.9375 68.332031 C 83.375 68.964844 72.667969 80.867188 58.078125 85.785156 C 63.710938 81.898438 67.410156 75.398438 67.410156 68.054688 C 67.410156 60.109375 63.082031 53.152344 56.65625 49.421875 C 71.96875 54.015625 83.359375 66.671875 83.9375 67.328125 L 84.382812 67.828125 Z M 7.878906 68.332031 L 7.429688 67.828125 L 7.871094 67.332031 C 8.453125 66.683594 19.808594 54.164062 34.941406 49.503906 C 28.59375 53.253906 24.324219 60.164062 24.324219 68.054688 C 24.324219 75.359375 27.980469 81.820312 33.558594 85.71875 C 19.082031 80.757812 8.4375 68.960938 7.878906 68.332031 Z M 45.867188 85.46875 C 36.261719 85.46875 28.449219 77.65625 28.449219 68.054688 C 28.449219 58.453125 36.261719 50.640625 45.867188 50.640625 C 55.472656 50.640625 63.289062 58.453125 63.289062 68.054688 C 63.289062 77.65625 55.472656 85.46875 45.867188 85.46875 Z M 88.683594 66.460938 L 87.023438 64.59375 C 86.261719 63.738281 68.191406 43.648438 45.90625 43.648438 C 36.585938 43.648438 26.929688 47.078125 17.214844 53.832031 C 10.023438 58.832031 5.3125 64.011719 4.792969 64.59375 L 3.132812 66.460938 C 2.441406 67.242188 2.441406 68.417969 3.132812 69.195312 L 4.792969 71.070312 C 5.300781 71.640625 9.960938 76.789062 17.207031 81.824219 C 26.921875 88.582031 36.578125 92.007812 45.90625 92.007812 C 68.191406 92.007812 86.261719 71.921875 87.019531 71.070312 L 88.683594 69.199219 C 89.375 68.417969 89.375 67.242188 88.683594 66.460938 " fill-opacity="1" fill-rule="nonzero"/></g><g clip-path="url(#711a031330)"><path fill="#000000" d="M 12.457031 59.453125 C 11.296875 55.597656 10.402344 51.582031 9.800781 47.496094 C 12.636719 47.074219 15.910156 46.179688 19.554688 44.820312 C 23.523438 43.34375 27.996094 41.304688 32.847656 38.761719 C 38.632812 35.734375 43.640625 32.660156 46.039062 31.148438 C 46.046875 31.152344 46.050781 31.152344 46.054688 31.15625 C 46.058594 31.152344 46.0625 31.152344 46.066406 31.148438 C 48.464844 32.660156 53.476562 35.734375 59.257812 38.761719 C 64.109375 41.304688 68.582031 43.34375 72.550781 44.820312 C 76.195312 46.179688 79.472656 47.074219 82.304688 47.496094 C 81.703125 51.582031 80.8125 55.597656 79.652344 59.453125 C 78.402344 63.601562 76.804688 67.667969 74.910156 71.542969 C 85.789062 59.792969 88.875 42.210938 88.875 42.210938 L 85.636719 42.171875 C 80.503906 42.113281 72.371094 39.242188 62.125 33.875 C 54.191406 29.71875 47.808594 25.515625 47.746094 25.476562 L 46.066406 24.367188 L 46.054688 24.375 L 46.039062 24.367188 L 44.363281 25.476562 C 44.296875 25.515625 37.914062 29.71875 29.980469 33.875 C 19.734375 39.242188 11.605469 42.113281 6.472656 42.171875 L 3.234375 42.210938 C 3.234375 42.210938 6.320312 59.792969 17.195312 71.542969 C 15.300781 67.667969 13.707031 63.601562 12.457031 59.453125 " fill-opacity="1" fill-rule="nonzero"/></g><g clip-path="url(#ae572f0db8)"><path fill="#000000" d="M 46.066406 104.328125 C 46.0625 104.328125 46.058594 104.324219 46.054688 104.320312 C 46.050781 104.324219 46.046875 104.328125 46.039062 104.328125 C 27.484375 92.480469 11.648438 68.691406 8.617188 64.136719 C 9.652344 67.082031 10.828125 69.96875 12.136719 72.769531 C 15.738281 80.476562 20.378906 87.660156 25.933594 94.117188 C 30.875 99.867188 35.644531 103.972656 38.777344 106.40625 C 42.226562 109.082031 44.503906 110.386719 44.601562 110.441406 L 46.039062 111.261719 L 46.054688 111.253906 L 46.066406 111.261719 L 47.503906 110.441406 C 47.601562 110.386719 49.882812 109.082031 53.328125 106.40625 C 56.460938 103.972656 61.230469 99.867188 66.175781 94.117188 C 71.726562 87.660156 76.367188 80.476562 79.96875 72.769531 C 81.277344 69.96875 82.457031 67.082031 83.492188 64.136719 C 80.460938 68.691406 64.621094 92.480469 46.066406 104.328125 " fill-opacity="1" fill-rule="nonzero"/></g></svg>