<svg xmlns="http://www.w3.org/2000/svg" xmlns:xlink="http://www.w3.org/1999/xlink" width="1366" zoomAndPan="magnify" viewBox="0 0 1024.5 576" height="768" preserveAspectRatio="xMidYMid meet" version="1.0"><defs><clipPath id="35a524e3d4"><path d="M 0 0.140625 L 1024 0.140625 L 1024 575.859375 L 0 575.859375 Z M 0 0.140625 " clip-rule="nonzero"/></clipPath><clipPath id="85dbcb03a3"><path d="M 777 0.140625 L 1024 0.140625 L 1024 373 L 777 373 Z M 777 0.140625 " clip-rule="nonzero"/></clipPath><clipPath id="60111bf0cd"><path d="M 767.320312 -59.886719 L 1232.539062 -128.960938 L 1298.273438 313.777344 L 833.054688 382.851562 Z M 767.320312 -59.886719 " clip-rule="nonzero"/></clipPath><clipPath id="5a1cc60709"><path d="M 841.46875 -70.898438 L 1158.078125 -117.90625 C 1199.03125 -123.984375 1237.160156 -95.714844 1243.238281 -54.761719 L 1286.953125 239.671875 C 1293.035156 280.625 1264.765625 318.753906 1223.8125 324.832031 L 907.203125 371.839844 C 866.25 377.921875 828.125 349.652344 822.042969 308.699219 L 778.328125 14.261719 C 772.25 -26.691406 800.519531 -64.816406 841.46875 -70.898438 Z M 841.46875 -70.898438 " clip-rule="nonzero"/></clipPath><clipPath id="6e46922512"><path d="M 0 482 L 260 482 L 260 575.859375 L 0 575.859375 Z M 0 482 " clip-rule="nonzero"/></clipPath><clipPath id="7150691df0"><path d="M -260.824219 541.339844 L 204.398438 472.269531 L 270.128906 915.007812 L -195.089844 984.078125 Z M -260.824219 541.339844 " clip-rule="nonzero"/></clipPath><clipPath id="3cd7046ae3"><path d="M -186.671875 530.332031 L 129.933594 483.324219 C 170.886719 477.242188 209.015625 505.511719 215.09375 546.464844 L 258.808594 840.902344 C 264.890625 881.855469 236.621094 919.980469 195.667969 926.0625 L -120.941406 973.070312 C -161.890625 979.148438 -200.019531 950.878906 -206.097656 909.929688 L -249.816406 615.492188 C -255.894531 574.539062 -227.625 536.410156 -186.671875 530.332031 Z M -186.671875 530.332031 " clip-rule="nonzero"/></clipPath></defs><g clip-path="url(#35a524e3d4)"><path fill="#ffffff" d="M 0 0.140625 L 1024 0.140625 L 1024 575.859375 L 0 575.859375 Z M 0 0.140625 " fill-opacity="1" fill-rule="nonzero"/><path fill="#ffffff" d="M 0 0.140625 L 1024 0.140625 L 1024 575.859375 L 0 575.859375 Z M 0 0.140625 " fill-opacity="1" fill-rule="nonzero"/></g><g clip-path="url(#85dbcb03a3)"><g clip-path="url(#60111bf0cd)"><g clip-path="url(#5a1cc60709)"><path fill="#000000" d="M 767.320312 -59.886719 L 1232.539062 -128.960938 L 1298.273438 313.777344 L 833.054688 382.851562 Z M 767.320312 -59.886719 " fill-opacity="1" fill-rule="nonzero"/></g></g></g><g clip-path="url(#6e46922512)"><g clip-path="url(#7150691df0)"><g clip-path="url(#3cd7046ae3)"><path fill="#000000" d="M -260.824219 541.339844 L 204.398438 472.269531 L 270.128906 915.007812 L -195.089844 984.078125 Z M -260.824219 541.339844 " fill-opacity="1" fill-rule="nonzero"/></g></g></g></svg>