<svg xmlns="http://www.w3.org/2000/svg" xmlns:xlink="http://www.w3.org/1999/xlink" width="1366" zoomAndPan="magnify" viewBox="0 0 1024.5 576" height="768" preserveAspectRatio="xMidYMid meet" version="1.0"><defs><clipPath id="2df5a92cd1"><path d="M 0 0.140625 L 1024 0.140625 L 1024 575.859375 L 0 575.859375 Z M 0 0.140625 " clip-rule="nonzero"/></clipPath><clipPath id="62f37a6447"><path d="M 776 0.140625 L 1024 0.140625 L 1024 373 L 776 373 Z M 776 0.140625 " clip-rule="nonzero"/></clipPath><clipPath id="22527fd7bb"><path d="M 765.820312 -59.886719 L 1231.042969 -128.960938 L 1296.773438 313.777344 L 831.554688 382.851562 Z M 765.820312 -59.886719 " clip-rule="nonzero"/></clipPath><clipPath id="6e35310834"><path d="M 839.972656 -70.898438 L 1156.578125 -117.90625 C 1197.53125 -123.984375 1235.660156 -95.714844 1241.738281 -54.761719 L 1285.453125 239.671875 C 1291.535156 280.625 1263.265625 318.753906 1222.3125 324.832031 L 905.703125 371.839844 C 864.753906 377.921875 826.625 349.652344 820.546875 308.699219 L 776.828125 14.261719 C 770.75 -26.691406 799.019531 -64.816406 839.972656 -70.898438 Z M 839.972656 -70.898438 " clip-rule="nonzero"/></clipPath><clipPath id="68d1a24c1e"><path d="M 0 482 L 262 482 L 262 575.859375 L 0 575.859375 Z M 0 482 " clip-rule="nonzero"/></clipPath><clipPath id="9fb0fc239f"><path d="M -259.324219 541.339844 L 205.894531 472.269531 L 271.628906 915.007812 L -193.589844 984.078125 Z M -259.324219 541.339844 " clip-rule="nonzero"/></clipPath><clipPath id="40c4e8c7ba"><path d="M -185.175781 530.332031 L 131.433594 483.324219 C 172.386719 477.242188 210.515625 505.511719 216.59375 546.464844 L 260.308594 840.902344 C 266.390625 881.855469 238.121094 919.980469 197.167969 926.0625 L -119.441406 973.070312 C -160.390625 979.148438 -198.519531 950.878906 -204.601562 909.929688 L -248.316406 615.492188 C -254.394531 574.539062 -226.125 536.410156 -185.175781 530.332031 Z M -185.175781 530.332031 " clip-rule="nonzero"/></clipPath></defs><g clip-path="url(#2df5a92cd1)"><path fill="#ffffff" d="M 0 0.140625 L 1024 0.140625 L 1024 575.859375 L 0 575.859375 Z M 0 0.140625 " fill-opacity="1" fill-rule="nonzero"/><path fill="#ffffff" d="M 0 0.140625 L 1024 0.140625 L 1024 575.859375 L 0 575.859375 Z M 0 0.140625 " fill-opacity="1" fill-rule="nonzero"/></g><g clip-path="url(#62f37a6447)"><g clip-path="url(#22527fd7bb)"><g clip-path="url(#6e35310834)"><path fill="#000000" d="M 765.820312 -59.886719 L 1231.042969 -128.960938 L 1296.773438 313.777344 L 831.554688 382.851562 Z M 765.820312 -59.886719 " fill-opacity="1" fill-rule="nonzero"/></g></g></g><g clip-path="url(#68d1a24c1e)"><g clip-path="url(#9fb0fc239f)"><g clip-path="url(#40c4e8c7ba)"><path fill="#000000" d="M -259.324219 541.339844 L 205.894531 472.269531 L 271.628906 915.007812 L -193.589844 984.078125 Z M -259.324219 541.339844 " fill-opacity="1" fill-rule="nonzero"/></g></g></g></svg>