<svg xmlns="http://www.w3.org/2000/svg" xmlns:xlink="http://www.w3.org/1999/xlink" width="1366" zoomAndPan="magnify" viewBox="0 0 1024.5 576" height="768" preserveAspectRatio="xMidYMid meet" version="1.0"><defs><clipPath id="8506bcb03b"><path d="M 0 0.140625 L 1024 0.140625 L 1024 575.859375 L 0 575.859375 Z M 0 0.140625 " clip-rule="nonzero"/></clipPath><clipPath id="42b7549c39"><path d="M 780 0.140625 L 1024 0.140625 L 1024 373 L 780 373 Z M 780 0.140625 " clip-rule="nonzero"/></clipPath><clipPath id="5ada8a3685"><path d="M 770.316406 -59.886719 L 1235.539062 -128.960938 L 1301.273438 313.777344 L 836.050781 382.851562 Z M 770.316406 -59.886719 " clip-rule="nonzero"/></clipPath><clipPath id="a186ab971c"><path d="M 844.46875 -70.898438 L 1161.078125 -117.90625 C 1202.03125 -123.984375 1240.15625 -95.714844 1246.238281 -54.761719 L 1289.953125 239.671875 C 1296.03125 280.625 1267.761719 318.753906 1226.8125 324.832031 L 910.203125 371.839844 C 869.25 377.921875 831.125 349.652344 825.042969 308.699219 L 781.328125 14.261719 C 775.246094 -26.691406 803.515625 -64.816406 844.46875 -70.898438 Z M 844.46875 -70.898438 " clip-rule="nonzero"/></clipPath><clipPath id="8ac83d81cc"><path d="M 0 482 L 256 482 L 256 575.859375 L 0 575.859375 Z M 0 482 " clip-rule="nonzero"/></clipPath><clipPath id="247c1c9234"><path d="M -265.320312 541.339844 L 199.898438 472.269531 L 265.632812 915.007812 L -199.589844 984.078125 Z M -265.320312 541.339844 " clip-rule="nonzero"/></clipPath><clipPath id="38c031de31"><path d="M -191.171875 530.332031 L 125.4375 483.324219 C 166.390625 477.242188 204.515625 505.511719 210.597656 546.464844 L 254.3125 840.902344 C 260.394531 881.855469 232.125 919.980469 191.171875 926.0625 L -125.4375 973.070312 C -166.390625 979.148438 -204.515625 950.878906 -210.597656 909.929688 L -254.3125 615.492188 C -260.394531 574.539062 -232.125 536.410156 -191.171875 530.332031 Z M -191.171875 530.332031 " clip-rule="nonzero"/></clipPath></defs><g clip-path="url(#8506bcb03b)"><path fill="#ffffff" d="M 0 0.140625 L 1024 0.140625 L 1024 575.859375 L 0 575.859375 Z M 0 0.140625 " fill-opacity="1" fill-rule="nonzero"/><path fill="#ffffff" d="M 0 0.140625 L 1024 0.140625 L 1024 575.859375 L 0 575.859375 Z M 0 0.140625 " fill-opacity="1" fill-rule="nonzero"/></g><g clip-path="url(#42b7549c39)"><g clip-path="url(#5ada8a3685)"><g clip-path="url(#a186ab971c)"><path fill="#000000" d="M 770.316406 -59.886719 L 1235.539062 -128.960938 L 1301.273438 313.777344 L 836.050781 382.851562 Z M 770.316406 -59.886719 " fill-opacity="1" fill-rule="nonzero"/></g></g></g><g clip-path="url(#8ac83d81cc)"><g clip-path="url(#247c1c9234)"><g clip-path="url(#38c031de31)"><path fill="#000000" d="M -265.320312 541.339844 L 199.898438 472.269531 L 265.632812 915.007812 L -199.589844 984.078125 Z M -265.320312 541.339844 " fill-opacity="1" fill-rule="nonzero"/></g></g></g></svg>