<svg xmlns="http://www.w3.org/2000/svg" xmlns:xlink="http://www.w3.org/1999/xlink" width="1366" zoomAndPan="magnify" viewBox="0 0 1024.5 576" height="768" preserveAspectRatio="xMidYMid meet" version="1.0"><defs><clipPath id="54f9f08ab5"><path d="M 0 0.140625 L 1024 0.140625 L 1024 575.859375 L 0 575.859375 Z M 0 0.140625 " clip-rule="nonzero"/></clipPath><clipPath id="faa505c71a"><path d="M 0 0.140625 L 247 0.140625 L 247 326 L 0 326 Z M 0 0.140625 " clip-rule="nonzero"/></clipPath><clipPath id="a81b92bda5"><path d="M -256.585938 10.359375 L 209.417969 -58.832031 L 257.679688 266.230469 L -208.324219 335.417969 Z M -256.585938 10.359375 " clip-rule="nonzero"/></clipPath><clipPath id="fb25a982c3"><path d="M -182.433594 -0.652344 L 134.171875 -47.660156 C 175.125 -53.738281 213.253906 -25.46875 219.332031 15.480469 L 245.578125 192.242188 C 251.65625 233.191406 223.386719 271.320312 182.433594 277.398438 L -134.171875 324.40625 C -175.125 330.488281 -213.253906 302.21875 -219.332031 261.265625 L -245.578125 84.507812 C -251.65625 43.554688 -223.386719 5.429688 -182.433594 -0.652344 Z M -182.433594 -0.652344 " clip-rule="nonzero"/></clipPath></defs><g clip-path="url(#54f9f08ab5)"><path fill="#ffffff" d="M 0 0.140625 L 1024 0.140625 L 1024 575.859375 L 0 575.859375 Z M 0 0.140625 " fill-opacity="1" fill-rule="nonzero"/><path fill="#ffffff" d="M 0 0.140625 L 1024 0.140625 L 1024 575.859375 L 0 575.859375 Z M 0 0.140625 " fill-opacity="1" fill-rule="nonzero"/></g><g clip-path="url(#faa505c71a)"><g clip-path="url(#a81b92bda5)"><g clip-path="url(#fb25a982c3)"><path fill="#000000" d="M -256.585938 10.359375 L 208.148438 -58.640625 L 256.410156 266.417969 L -208.324219 335.417969 Z M -256.585938 10.359375 " fill-opacity="1" fill-rule="nonzero"/></g></g></g></svg>